<?xml version="1.0" standalone="no"?>
<!DOCTYPE svg PUBLIC "-//W3C//DTD SVG 20010904//EN"
 "http://www.w3.org/TR/2001/REC-SVG-20010904/DTD/svg10.dtd">
<svg version="1.0" xmlns="http://www.w3.org/2000/svg"
 width="1280.000000pt" height="300.000000pt" viewBox="0 0 1280.000000 300.000000"
 preserveAspectRatio="xMidYMid meet">

<g transform="translate(0.000000,300.000000) scale(0.100000,-0.100000)"
fill="#000000" stroke="none">
<path d="M4037 2275 c23 -20 52 -52 65 -73 23 -37 23 -39 28 -467 7 -491 7
-493 89 -575 56 -55 97 -69 242 -80 123 -9 147 -19 174 -76 l18 -38 19 37 c30
59 56 70 186 78 97 7 124 13 171 36 60 30 109 90 133 161 8 25 13 172 17 467
7 485 0 447 91 528 l40 37 -657 0 -657 0 41 -35z m1223 17 c0 -4 -16 -23 -35
-42 -46 -45 -65 -88 -65 -149 l0 -51 -507 2 -507 3 -3 50 c-4 77 -9 89 -59
144 l-46 51 611 0 c336 0 611 -4 611 -8z m-323 -321 c10 9 13 7 13 -6 0 -10 5
-15 13 -12 19 7 43 -14 50 -45 6 -23 3 -29 -20 -40 -19 -9 -29 -22 -31 -41 -2
-15 -8 -27 -13 -27 -5 0 -6 12 -3 28 7 24 6 26 -9 13 -12 -9 -17 -10 -17 -2 0
7 -5 9 -10 6 -6 -4 -8 -16 -4 -27 4 -14 2 -18 -5 -14 -6 4 -11 18 -11 30 0 13
-7 30 -17 37 -15 13 -16 11 -10 -13 4 -16 3 -30 -4 -34 -8 -5 -6 -10 5 -16 13
-7 16 -17 11 -38 -4 -19 1 -40 15 -66 30 -54 37 -59 55 -44 17 14 21 50 5 50
-5 0 -10 -7 -10 -15 0 -8 -4 -15 -10 -15 -5 0 -10 7 -10 15 0 8 -4 15 -10 15
-5 0 -10 9 -10 19 0 11 -6 22 -12 24 -9 4 -8 6 3 6 8 1 20 -4 25 -9 7 -7 19
-2 38 17 l28 28 -7 -48 c-5 -32 -4 -47 4 -47 6 0 12 8 13 18 5 59 4 103 -4
108 -9 6 -1 24 10 24 4 0 13 -25 20 -55 14 -58 10 -74 -32 -122 -25 -29 -13
-42 15 -17 l22 19 -9 -30 c-13 -46 -8 -112 10 -140 21 -32 66 -35 66 -5 0 11
3 20 8 20 4 0 8 -28 9 -61 3 -61 2 -62 -39 -99 -41 -38 -47 -70 -13 -70 12 0
15 -6 10 -22 -4 -13 -11 -27 -16 -32 -5 -6 -9 -16 -9 -24 0 -7 -11 -28 -25
-46 -21 -28 -29 -31 -60 -28 -44 5 -46 20 -3 24 26 2 36 10 50 38 24 48 22 65
-7 78 -35 16 -33 52 5 80 68 51 53 93 -47 132 -32 13 -63 29 -69 36 -15 19
-30 17 -39 -3 -6 -17 -8 -16 -15 2 -12 31 -57 52 -80 37 -23 -14 -60 -16 -60
-4 0 14 128 65 146 58 24 -9 84 4 84 19 0 9 -14 11 -51 7 -45 -4 -51 -2 -56
17 -3 11 -10 21 -15 21 -13 0 -38 26 -38 40 0 6 -5 8 -11 4 -8 -4 -9 1 -4 16
5 15 4 20 -4 16 -7 -5 -11 1 -11 14 0 13 -8 24 -19 27 -20 5 -28 63 -8 63 20
0 31 -13 57 -64 13 -27 32 -51 42 -54 10 -2 18 -11 18 -18 0 -8 4 -14 10 -14
5 0 17 -14 26 -31 11 -22 19 -28 26 -21 8 8 6 16 -6 27 -9 9 -16 23 -16 31 0
8 -5 14 -10 14 -6 0 -8 11 -4 25 5 19 2 25 -9 25 -14 0 -14 3 0 31 12 24 13
33 3 39 -9 6 -8 15 5 40 9 17 14 34 11 37 -2 3 7 16 21 29 18 16 30 21 37 14
6 -6 14 -6 23 1z m-577 -27 c0 -3 -14 -23 -30 -44 -20 -25 -31 -51 -32 -74 -2
-48 -18 -35 -18 15 0 24 -4 38 -10 34 -15 -9 -12 -56 4 -87 11 -21 12 -28 2
-28 -40 0 -50 83 -15 132 25 34 99 73 99 52z m146 -34 c6 -19 19 -36 28 -38
19 -4 21 -25 5 -55 -24 -46 -57 -50 -51 -7 8 53 -4 75 -58 102 -55 29 -50 38
20 35 42 -2 46 -4 56 -37z m612 2 c3 -16 -1 -20 -12 -16 -11 4 -20 -4 -31 -27
-8 -19 -14 -26 -15 -17 0 26 32 89 44 85 6 -2 12 -13 14 -25z m-700 -14 c21
-21 13 -27 -18 -11 -38 18 -63 3 -58 -36 3 -23 7 -26 41 -25 20 1 37 -3 37 -7
0 -18 -67 -9 -84 10 -37 41 43 108 82 69z m-37 -48 c5 0 9 5 9 11 0 5 5 7 10
4 15 -9 2 -25 -20 -25 -19 0 -34 23 -22 35 4 4 8 0 10 -9 2 -9 8 -16 13 -16z
m758 16 c14 -17 -5 -56 -26 -56 -14 0 -16 13 -7 48 7 25 17 28 33 8z m-665
-61 c-11 -28 -20 -15 -16 22 4 33 6 35 13 15 5 -12 6 -29 3 -37z m96 -31 c0
-17 -16 -42 -47 -74 -42 -42 -51 -47 -71 -39 l-24 9 31 38 c18 20 36 42 42 47
6 6 20 20 32 32 25 25 37 21 37 -13z m-145 6 c8 -13 -5 -13 -25 0 -13 8 -13
10 2 10 9 0 20 -4 23 -10z m515 0 c0 -5 -7 -10 -15 -10 -8 0 -15 5 -15 10 0 6
7 10 15 10 8 0 15 -4 15 -10z m-675 -50 c18 -34 40 -48 98 -60 l42 -8 -45 -2
c-25 -1 -54 -1 -65 0 -31 3 -65 40 -65 72 0 36 15 36 35 -2z m107 -16 c10 -3
33 4 53 16 19 12 35 17 35 11 0 -12 -54 -51 -72 -51 -25 0 -58 31 -57 53 l0
22 11 -22 c6 -13 19 -25 30 -29z m38 36 c11 -7 7 -10 -18 -10 -20 0 -31 4 -27
10 8 13 26 13 45 0z m-97 -26 c4 -23 3 -24 -10 -11 -9 8 -12 20 -9 26 10 16
13 14 19 -15z m761 -44 c3 -34 3 -46 -3 -30 -13 41 -21 104 -12 94 5 -5 12
-34 15 -64z m-534 -5 c-7 -9 -15 -13 -18 -10 -3 2 1 11 8 20 7 9 15 13 18 10
3 -2 -1 -11 -8 -20z m-80 -41 c19 -20 -82 -32 -110 -14 -12 8 -9 10 12 10 15
0 30 5 34 11 6 10 52 5 64 -7z m627 -46 c-3 -8 -6 -5 -6 6 -1 11 2 17 5 13 3
-3 4 -12 1 -19z m-631 -23 c4 -14 3 -29 0 -33 -9 -8 -27 19 -20 30 3 4 -2 8
-11 8 -11 0 -15 -7 -13 -20 2 -10 -1 -18 -7 -17 -5 1 -9 10 -8 20 4 24 -16 21
-26 -5 -5 -14 -10 -17 -15 -10 -4 6 -2 21 4 32 8 15 21 20 50 20 34 0 41 -4
46 -25z m105 -94 c-11 -51 -47 -106 -79 -120 -35 -16 -36 -14 -8 20 25 30 36
66 16 54 -6 -3 -7 1 -3 10 4 11 8 13 13 6 4 -7 15 -2 30 14 13 14 20 28 17 32
-4 3 -2 12 5 20 17 21 20 10 9 -36z m-142 -53 c-11 -108 -46 -207 -69 -193 -5
3 5 31 21 63 21 40 31 77 35 127 6 72 11 101 18 94 2 -2 0 -43 -5 -91z m-76
20 c9 -11 17 -29 17 -40 0 -11 5 -28 10 -38 14 -27 -3 -33 -44 -16 -37 15 -55
40 -67 94 l-7 34 36 -7 c21 -3 45 -15 55 -27z m661 -7 c15 -16 15 -22 4 -40
-12 -20 -42 -35 -64 -30 -5 1 -11 1 -14 0 -3 -1 -20 -4 -38 -6 -45 -4 -50 -11
-54 -67 -2 -27 -7 -48 -11 -48 -5 0 -6 -4 -3 -9 14 -22 -37 -34 -96 -22 -23 4
-3 19 33 25 l40 6 -2 65 c-2 71 9 95 46 95 27 0 91 26 100 40 10 16 40 12 59
-9z m-677 -243 c-3 -8 -6 -5 -6 6 -1 11 2 17 5 13 3 -3 4 -12 1 -19z"/>
<path d="M4252 2234 c-14 -9 -22 -26 -22 -43 0 -35 37 -91 73 -111 26 -15 28
-14 72 33 51 55 59 92 23 106 -13 5 -28 7 -34 4 -5 -2 -27 3 -47 12 -44 18
-38 18 -65 -1z"/>
<path d="M4572 2234 c-38 -27 -30 -70 24 -121 26 -24 53 -43 60 -43 7 0 33 21
58 46 55 55 61 93 20 121 -22 14 -31 15 -56 5 -20 -7 -37 -8 -49 -2 -24 13
-31 13 -57 -6z"/>
<path d="M4980 2238 c-14 -6 -43 -14 -65 -17 -34 -5 -40 -10 -43 -32 -4 -30
62 -117 89 -118 38 -2 99 72 99 119 0 20 -33 61 -47 59 -5 0 -19 -5 -33 -11z"/>
<path d="M4870 1901 c0 -11 31 -24 39 -16 3 3 -1 10 -9 15 -19 12 -30 12 -30
1z"/>
<path d="M4958 1903 c-24 -6 -23 -23 1 -23 10 0 21 7 25 15 6 15 4 16 -26 8z"/>
<path d="M4280 1445 c0 -10 49 -83 60 -90 25 -15 20 5 -12 48 -29 41 -48 57
-48 42z"/>
<path d="M5670 2211 c-81 -17 -120 -60 -120 -132 0 -40 5 -55 29 -81 28 -32
32 -33 120 -36 102 -4 129 -20 117 -67 -13 -51 -87 -64 -214 -39 -31 6 -32 6
-32 -29 0 -39 7 -43 109 -53 74 -8 152 10 185 43 52 52 45 151 -13 190 -28 19
-47 23 -108 23 -90 0 -113 10 -113 50 0 56 64 75 193 57 l57 -8 0 34 c0 30 -4
35 -27 40 -57 11 -149 15 -183 8z"/>
<path d="M6940 1995 l0 -215 40 0 40 0 0 104 c0 101 1 105 26 125 35 27 90 28
104 2 5 -11 10 -67 10 -124 l0 -105 35 -4 c20 -2 38 -2 40 1 3 2 5 59 5 127 0
117 -1 124 -26 153 -38 45 -93 50 -176 16 -16 -6 -18 0 -18 64 l0 71 -40 0
-40 0 0 -215z"/>
<path d="M5960 1986 c0 -204 5 -212 118 -207 18 1 22 7 22 31 0 22 -5 30 -18
30 -34 0 -42 21 -42 107 l0 83 30 0 c28 0 30 3 30 35 0 33 -2 35 -35 35 -29 0
-36 4 -41 25 -5 19 -13 25 -35 25 l-29 0 0 -164z"/>
<path d="M6732 1979 c3 -197 4 -199 95 -199 52 0 53 0 53 30 0 25 -4 30 -23
30 -39 0 -47 18 -47 107 l0 83 36 0 c34 0 35 1 32 33 -3 29 -6 32 -40 35 -29
2 -37 8 -42 28 -5 19 -13 24 -37 24 l-30 0 3 -171z"/>
<path d="M6168 1939 c-2 -88 -2 -162 -1 -163 1 -1 20 0 42 2 l41 4 0 108 c0
103 1 108 25 124 13 9 31 16 40 16 10 0 15 10 15 29 0 40 -10 44 -55 21 -37
-19 -37 -19 -42 1 -4 13 -14 19 -34 19 l-28 0 -3 -161z"/>
<path d="M6445 2095 c-5 -2 -22 -6 -37 -9 -23 -5 -28 -12 -28 -35 l0 -29 73 5
c81 6 117 -5 117 -37 0 -18 -7 -20 -76 -20 -70 0 -78 -2 -105 -29 -40 -41 -40
-91 1 -133 32 -31 31 -31 185 -18 6 0 25 -3 43 -6 l32 -6 0 125 c0 109 -2 127
-20 150 -26 33 -137 58 -185 42z m125 -210 c0 -18 -8 -28 -27 -36 -60 -22
-124 8 -94 45 9 11 30 16 67 16 51 0 54 -1 54 -25z"/>
<path d="M7320 1941 l0 -159 35 -4 c20 -2 38 -2 40 1 3 2 5 52 5 111 l0 106
29 17 c16 9 38 17 48 17 37 0 43 -20 43 -137 l0 -113 40 0 40 0 0 104 c0 101
1 105 26 125 30 23 64 27 82 9 8 -8 12 -50 12 -125 l0 -113 40 0 40 0 0 129
c0 123 -1 131 -24 158 -21 24 -32 28 -73 27 -26 0 -62 -8 -79 -17 -30 -15 -34
-15 -70 3 -47 25 -68 25 -121 0 -42 -18 -42 -18 -48 1 -4 13 -15 19 -36 19
l-29 0 0 -159z"/>
<path d="M7941 2083 c-59 -31 -76 -64 -76 -147 0 -115 45 -160 160 -160 110 0
158 48 158 159 0 107 -43 154 -147 162 -46 3 -69 0 -95 -14z m142 -75 c25 -30
24 -121 -3 -148 -26 -26 -90 -27 -113 -2 -23 25 -31 101 -15 132 27 51 94 60
131 18z"/>
<path d="M8247 2093 c-4 -3 -7 -75 -7 -159 0 -149 0 -152 23 -156 54 -10 57
-5 57 106 0 111 5 123 60 144 20 8 26 17 25 38 0 25 -4 29 -25 26 -13 -1 -31
-9 -40 -17 -22 -20 -27 -19 -33 5 -5 20 -45 28 -60 13z"/>
<path d="M8532 2091 c-90 -23 -130 -138 -82 -236 29 -60 71 -77 180 -73 l85 3
0 29 0 29 -81 1 c-65 1 -86 5 -103 20 -12 11 -21 23 -21 28 0 4 47 8 105 8
l104 0 7 35 c8 46 -14 113 -46 137 -29 21 -101 30 -148 19z m104 -87 c24 -35
8 -46 -62 -42 -53 3 -59 5 -56 23 8 50 90 63 118 19z"/>
<path d="M5560 1441 c0 -91 2 -102 24 -128 21 -25 31 -28 81 -28 50 0 60 3 81
28 22 26 24 37 24 128 0 78 -3 99 -14 99 -11 0 -15 -22 -18 -101 -3 -113 -13
-129 -75 -129 -59 0 -73 26 -73 135 0 78 -3 95 -15 95 -12 0 -15 -18 -15 -99z"/>
<path d="M5950 1410 c0 -101 3 -131 13 -128 8 3 14 37 17 102 l5 97 75 -98
c42 -54 82 -98 90 -98 12 0 16 24 18 128 2 107 0 127 -12 127 -12 0 -16 -19
-18 -101 l-3 -102 -75 99 c-105 139 -110 138 -110 -26z"/>
<path d="M6350 1409 c0 -100 3 -130 13 -127 8 3 13 41 15 131 2 109 0 127 -13
127 -13 0 -15 -20 -15 -131z"/>
<path d="M6540 1533 c0 -11 91 -225 103 -240 21 -28 36 -8 86 110 28 67 51
125 51 130 0 4 -6 7 -14 7 -8 0 -31 -42 -56 -105 -23 -58 -45 -105 -49 -105
-3 0 -25 46 -48 103 -25 62 -47 103 -57 105 -9 2 -16 0 -16 -5z"/>
<path d="M6942 1413 l3 -128 83 -3 c68 -2 82 0 82 13 0 12 -13 15 -65 15 l-65
0 0 45 0 45 60 0 c47 0 60 3 60 15 0 12 -13 15 -60 15 l-60 0 0 40 0 40 65 0
c51 0 65 3 65 15 0 12 -16 15 -85 15 l-86 0 3 -127z"/>
<path d="M7289 1536 c-2 -2 -3 -61 -1 -131 2 -92 6 -125 15 -122 8 2 13 40 15
116 l3 112 52 -3 c48 -3 52 -5 55 -30 3 -23 -3 -31 -32 -45 -20 -9 -36 -21
-36 -26 0 -21 84 -127 101 -127 11 0 19 2 19 5 0 3 -19 31 -42 62 -30 41 -38
58 -28 61 25 9 60 51 60 72 0 41 -34 60 -108 60 -38 0 -71 -2 -73 -4z"/>
<path d="M7656 1519 c-32 -25 -35 -70 -6 -99 15 -15 33 -20 69 -20 32 0 55 -6
65 -16 20 -19 20 -24 0 -53 -16 -22 -22 -23 -80 -18 -66 5 -84 -6 -38 -23 57
-22 143 -3 158 35 22 59 -10 96 -89 103 -65 5 -83 21 -66 58 10 24 15 25 76
23 36 -1 68 1 72 5 14 14 -22 26 -78 26 -42 0 -63 -5 -83 -21z"/>
<path d="M8000 1409 c0 -100 3 -130 13 -127 8 3 13 41 15 131 2 109 0 127 -13
127 -13 0 -15 -20 -15 -131z"/>
<path d="M8182 1528 c3 -7 21 -14 41 -16 l36 -3 3 -112 c2 -92 6 -112 18 -112
12 0 16 20 18 112 l3 112 37 3 c73 6 31 23 -64 26 -75 2 -95 0 -92 -10z"/>
<path d="M8510 1535 c0 -3 20 -43 45 -88 33 -62 45 -95 45 -126 0 -60 23 -48
30 15 4 33 20 73 49 122 23 41 40 76 37 79 -13 13 -37 -10 -67 -68 -24 -45
-36 -58 -42 -48 -4 8 -21 38 -38 67 -16 28 -36 52 -44 52 -8 0 -15 -2 -15 -5z"/>
<path d="M4595 943 c-83 -11 -110 -42 -95 -109 5 -21 5 -41 0 -44 -4 -3 -41
-3 -82 0 l-73 5 1 40 1 40 -10 -39 c-11 -38 -11 -38 -55 -33 -24 3 -51 12 -59
20 -14 14 -12 16 23 22 50 8 84 22 84 34 0 6 -11 6 -27 0 -16 -5 -47 -14 -71
-20 -36 -8 -44 -15 -49 -39 -6 -32 -14 -36 -44 -20 -18 10 -18 12 -3 35 15 23
15 26 -5 51 -25 31 -28 24 -5 -11 14 -22 14 -25 -5 -41 -24 -21 -20 -30 24
-49 33 -13 34 -15 23 -45 -9 -28 -8 -35 13 -56 34 -33 143 -48 279 -39 123 8
150 20 150 68 0 41 13 62 34 54 12 -5 14 -16 10 -52 -7 -45 -6 -45 32 -62 31
-13 71 -17 189 -17 182 -1 225 10 225 55 0 46 17 69 49 69 16 0 34 7 41 16 11
13 10 19 -8 36 l-20 21 24 38 c13 22 23 39 21 39 -2 0 -17 -5 -34 -10 -23 -8
-43 -6 -94 10 -115 36 -138 25 -119 -55 15 -65 13 -72 -25 -78 -33 -5 -148 8
-166 19 -4 2 -1 23 7 46 7 22 14 47 14 55 0 28 -120 57 -195 46z m128 -24 c22
-6 37 -15 34 -22 -2 -7 -26 -23 -53 -37 -34 -17 -50 -32 -52 -47 -4 -28 -22
-31 -22 -4 0 24 -19 39 -60 47 -29 6 -48 31 -42 54 4 19 137 25 195 9z m332
-20 c33 -11 74 -19 92 -17 36 4 41 -3 18 -22 -19 -16 -19 -29 2 -52 19 -21 17
-24 -20 -33 -25 -7 -27 -5 -27 23 0 35 -12 46 -65 61 -44 12 -53 18 -74 44
-19 24 -2 23 74 -4z m-491 -60 c43 -12 46 -26 9 -40 -38 -14 -49 -7 -61 43 -9
37 -9 40 3 25 7 -10 29 -23 49 -28z m202 4 c-12 -33 -17 -38 -41 -36 -46 4
-52 20 -13 36 20 8 39 20 42 26 16 26 24 8 12 -26z m287 -3 c13 0 30 -7 37
-15 14 -17 14 -16 -58 -33 -48 -11 -46 -13 -57 52 l-6 38 29 -21 c17 -11 41
-21 55 -21z m-813 -41 c35 -18 59 -21 189 -23 108 -1 153 2 162 12 20 19 31
14 19 -7 -5 -11 -10 -29 -10 -40 0 -25 -13 -27 -30 -6 -10 12 -9 15 4 15 10 0
15 4 12 9 -4 5 -22 5 -43 1 -20 -5 -41 -6 -46 -3 -6 4 -7 -5 -3 -21 4 -15 2
-26 -4 -26 -5 0 -10 9 -10 20 0 11 -4 20 -10 20 -14 0 -12 -32 3 -50 7 -9 25
-17 41 -18 28 -2 29 -1 10 13 -17 13 -17 14 -1 15 20 0 23 16 5 23 -7 2 -10 7
-7 11 3 3 16 -3 30 -14 20 -18 21 -23 9 -31 -12 -8 -10 -10 8 -6 15 4 22 1 19
-6 -2 -7 -21 -15 -43 -19 -60 -11 -295 -2 -333 12 -33 12 -33 14 -27 58 3 25
6 53 6 63 0 24 1 24 50 -2z m510 -19 c92 -24 236 -26 306 -5 27 8 50 15 51 15
1 0 0 -7 -3 -15 -4 -8 -14 -15 -24 -15 -24 0 -50 -10 -50 -20 0 -4 8 -7 17 -6
14 1 17 -6 15 -31 -2 -22 1 -33 10 -34 27 -3 -79 -18 -129 -18 l-53 -1 0 41
c0 36 -2 40 -15 29 -10 -9 -15 -9 -15 -1 0 6 -9 11 -20 11 -11 0 -20 -5 -20
-11 0 -5 5 -7 10 -4 6 3 13 -1 16 -10 4 -9 12 -14 19 -11 8 3 12 -4 11 -20 -1
-26 -15 -31 -34 -12 -9 9 -12 9 -12 0 0 -7 -5 -12 -11 -12 -7 0 -9 10 -5 25 4
16 2 25 -5 25 -6 0 -9 6 -6 14 6 16 -20 43 -30 32 -4 -4 -2 -10 4 -14 6 -4 14
-24 17 -46 l6 -38 -47 7 c-78 11 -89 23 -85 89 2 31 5 56 5 56 1 0 36 -9 77
-20z m337 -87 c-3 -10 -5 -2 -5 17 0 19 2 27 5 18 2 -10 2 -26 0 -35z"/>
<path d="M4210 741 c0 -28 4 -51 8 -51 11 0 44 81 36 89 -2 3 -7 -5 -11 -17
-3 -12 -10 -19 -15 -16 -5 3 -7 12 -4 20 3 7 1 16 -4 19 -6 4 -10 -15 -10 -44z"/>
<path d="M4274 725 c-2 -51 13 -62 18 -12 2 20 8 31 16 29 8 -1 12 3 10 10 -3
7 -13 14 -24 16 -16 2 -19 -4 -20 -43z"/>
<path d="M4346 745 c-29 -29 -13 -70 29 -70 19 -1 25 4 25 22 0 16 4 21 15 17
8 -4 15 -14 15 -24 0 -13 7 -18 20 -17 23 1 26 12 6 20 -9 3 -12 15 -9 31 3
15 1 26 -6 26 -6 0 -11 -5 -11 -12 0 -6 -7 -3 -15 8 -14 19 -14 19 -15 0 0
-18 -1 -18 -19 -2 -17 16 -20 16 -35 1z m34 -19 c0 -24 -12 -46 -21 -40 -15 9
-10 54 6 54 8 0 15 -6 15 -14z"/>
<path d="M4693 727 c1 -45 13 -58 19 -22 3 14 2 25 -3 25 -4 0 -10 8 -12 18
-3 9 -5 0 -4 -21z"/>
<path d="M4720 750 c0 -6 5 -10 10 -10 6 0 10 -9 10 -19 0 -11 -4 -23 -10 -26
-5 -3 -10 -11 -10 -18 0 -6 7 -2 15 9 13 17 14 17 15 2 0 -20 20 -25 20 -5 0
21 -24 66 -37 72 -7 2 -13 0 -13 -5z"/>
<path d="M4933 723 c-3 -7 7 -25 21 -38 28 -26 56 -33 56 -14 0 5 -4 7 -10 4
-6 -4 -10 7 -10 24 0 40 16 40 25 1 4 -16 11 -30 16 -30 12 0 11 11 -3 43 -11
22 -19 26 -51 25 -23 -1 -41 -7 -44 -15z m47 -14 c0 -11 -3 -11 -24 -3 -23 9
-20 23 4 17 11 -3 20 -9 20 -14z"/>
<path d="M4930 670 c0 -6 7 -10 15 -10 8 0 15 2 15 4 0 2 -7 6 -15 10 -8 3
-15 1 -15 -4z"/>
<path d="M4100 933 c0 -12 4 -13 137 -21 62 -4 108 -3 104 1 -4 4 -50 9 -102
11 -52 2 -104 6 -116 11 -13 4 -23 3 -23 -2z"/>
</g>
</svg>
